Coordinates
version=1
nRows=14
nColumns=36
inDegrees=yes

Units are S.I. units (second, meters, Newtons, ...)
If the header above contains a line with 'inDegrees', this indicates whether rotational values are in degrees (yes) or radians (no).

endheader
time	pelvis_tilt	pelvis_list	pelvis_rotation	pelvis_tx	pelvis_ty	pelvis_tz	hip_flexion_r	hip_adduction_r	hip_rotation_r	knee_angle_r	knee_angle_r_beta	ankle_angle_r	subtalar_angle_r	mtp_angle_r	hip_flexion_l	hip_adduction_l	hip_rotation_l	knee_angle_l	knee_angle_l_beta	ankle_angle_l	subtalar_angle_l	mtp_angle_l	lumbar_extension	lumbar_bending	lumbar_rotation	arm_flex_r	arm_add_r	arm_rot_r	elbow_flex_r	pro_sup_r	arm_flex_l	arm_add_l	arm_rot_l	elbow_flex_l	pro_sup_l
     44.75000000	      5.27954262	      3.40360964	     -8.72696151	      0.52208067	      0.96094896	      0.76797073	     10.49532576	     -4.58498383	      4.09198776	     65.71291064	      1.14690665	     -2.11883151	    -17.58453430	     -7.49999987	     10.89915809	      5.50463921	     -1.58173201	     23.79188767	      0.41524678	      8.07957645	    -12.98942764	     -7.49999987	    -12.83080957	     -4.34946984	      3.61360769	      8.81874807	    -10.02868979	     -4.19705898	     30.39294522	     84.95410342	      4.82391724	     -7.57426434	      5.49720530	     18.94673452	     77.08198181
     44.76666670	      5.62978810	      2.70112750	     -9.04370844	      0.51732743	      0.96510768	      0.77005629	     12.68321373	     -3.17814324	      4.48428517	     66.58963364	      1.16220835	      2.37036482	    -17.68035759	     -7.49999987	      8.77264722	      4.83195686	     -1.87035906	     22.43586432	      0.39157970	      7.99742266	    -13.16153510	     -7.49999987	    -13.81456482	     -3.73786794	      3.57650740	      8.27691115	     -9.41688916	     -4.26837752	     28.29274625	     84.73938531	      6.62657248	     -7.73880564	      6.04237824	     19.45963161	     77.22795819
     44.78333330	      5.76130161	      2.08833798	     -9.62694442	      0.51435015	      0.96798758	      0.77135076	     15.24852192	     -1.64980096	      5.10744238	     67.19189089	      1.17271973	      5.93327190	    -17.93761941	     -7.49999987	      6.99881584	      4.14505121	     -2.64536993	     21.30934447	      0.37191822	      8.54219828	    -12.44358701	     -7.49999987	    -14.42157132	     -3.28440930	      4.00877495	      7.53126968	     -8.86199695	     -4.33433039	     26.13014466	     85.03810112	      8.79947601	     -8.03766466	      7.36553903	     19.78312677	     78.03953811
     44.80000000	      5.99531143	      1.42105685	    -10.04038052	      0.51174240	      0.97128483	      0.77233709	     17.57888288	     -0.18657978	      5.38736408	     67.16620978	      1.17227151	      8.50797203	    -17.61846242	     -7.49999987	      5.10292772	      3.55451526	     -2.91125270	     20.23478995	      0.35316371	      8.99451734	    -12.26365509	     -7.49999987	    -15.21673985	     -2.75382073	      4.15846969	      6.73033550	     -8.32031348	     -4.73889337	     24.24559115	     85.03095118	     10.90657865	     -8.36500855	      7.94629892	     20.64804818	     78.54796634
     44.81666670	      6.21670859	      0.78319938	    -10.37797459	      0.50979861	      0.97434280	      0.77240965	     19.72038443	      1.17050614	      5.55320329	     66.24119352	      1.15612693	      9.81810761	    -17.24881479	     -7.49999987	      3.14130643	      3.04815039	     -3.06190683	     19.07201456	      0.33286945	      9.67922269	    -11.88472764	     -7.49999987	    -15.98415231	     -2.18448368	      4.15860059	      5.88209855	     -7.86677830	     -5.24921557	     22.45100910	     85.01347162	     12.75297670	     -8.72921775	      8.16794907	     21.60417913	     79.04828102
     44.83333330	      6.46376978	      0.16119569	    -10.67059223	      0.50919984	      0.97535982	      0.77023487	     21.37760631	      2.33638991	      5.64911764	     64.13754693	      1.11941137	     10.10237118	    -16.85181958	     -7.49999987	      1.01127279	      2.62105897	     -3.12539103	     17.79004767	      0.31049491	     10.48360601	    -11.39795966	     -7.49999987	    -16.67411824	     -1.57473182	      3.98068486	      4.97719089	     -7.58487709	     -5.76660581	     20.90640371	     85.01183448	     14.29807674	     -9.01955882	      8.04425938	     22.41241718	     79.46149971
     44.85000000	      6.74471692	     -0.30984580	    -11.00378292	      0.50993429	      0.97126307	      0.76669118	     22.60416473	      3.17049912	      5.88606840	     61.21109601	      1.06833516	      9.95089864	    -16.41459843	     -7.49999987	     -1.24159828	      2.41940803	     -3.22107962	     16.49332841	      0.28786289	     11.36765842	    -10.92439939	     -7.49999987	    -17.16066111	     -1.10545333	      3.69851516	      4.17812718	     -7.56149946	     -5.96306101	     19.56035305	     85.41779951	     15.64098587	     -9.26620080	      8.06597581	     23.10411593	     79.94721711
     44.86666670	      6.90015589	     -0.73557283	    -11.29290046	      0.51033242	      0.96618326	      0.76400988	     23.59978698	      3.81998778	      6.17104970	     57.58836357	      1.00510656	      9.66460129	    -15.91337897	     -7.49999987	     -3.37808369	      2.23863300	     -3.51963406	     15.33287089	      0.26760908	     12.49556673	     -9.85850447	     -7.49999987	    -17.33848364	     -0.73179221	      3.10309689	      3.24856047	     -7.58167399	     -6.01132374	     18.72695139	     84.35314745	     16.60735338	     -9.70623926	      8.01735992	     24.00404166	     79.52071183
     44.88333330	      6.96553942	     -1.15821025	    -11.60655859	      0.50855581	      0.96399264	      0.76311520	     24.47694676	      4.40191250	      6.51365890	     53.51807140	      0.93406656	      9.19064227	    -15.56504822	     -7.49999987	     -5.36745491	      2.11312131	     -3.66521400	     14.28841177	      0.24937983	     13.41109483	     -9.47488456	     -7.49999987	    -17.44650418	     -0.35329949	      2.61790188	      2.36100541	     -7.74344980	     -5.74715911	     18.41403751	     83.93836908	     17.33948907	    -10.15675489	      7.72984803	     25.52973772	     79.89032311
     44.90000000	      7.05368053	     -1.66275516	    -11.71574213	      0.50490907	      0.96472780	      0.76367967	     25.08520870	      4.96548246	      6.66557967	     49.05852668	      0.85623282	      8.62435767	    -15.13242224	     -7.49999987	     -7.26015020	      1.87601681	     -3.85815767	     13.36325844	      0.23323286	     14.42371854	     -8.88333499	     -7.49999987	    -17.76544277	      0.19233874	      2.24827845	      1.34381177	     -7.89478203	     -6.39320602	     18.97825881	     83.40000123	     18.21905824	    -10.56640990	      7.23106302	     27.15360666	     79.80697951
     44.91666670	      7.03778262	     -2.10934184	    -11.59311839	      0.50126064	      0.96497153	      0.76491705	     25.73975402	      5.46474584	      6.65028271	     44.60294268	      0.77846821	      8.35539623	    -14.24075496	     -7.49999987	     -8.81299368	      1.65095618	     -3.90826905	     12.62371128	      0.22032533	     15.42689820	     -8.60567325	     -7.49999987	    -18.08396011	      0.71782414	      1.86491759	      0.29901188	     -7.89615079	     -7.18062096	     19.72089621	     82.64662742	     19.00869174	    -11.03579480	      6.46562314	     29.23092605	     79.58623214
     44.93333330	      6.88745001	     -2.46521778	    -11.22676610	      0.49927312	      0.96374792	      0.76573025	     26.54990829	      5.90568078	      6.60634268	     40.43618688	      0.70574460	      8.53507615	    -12.98063955	     -7.49999987	     -9.98388914	      1.42785901	     -4.11173386	     12.18558030	      0.21267850	     16.73831618	     -8.03948772	     -7.49999987	    -18.31960932	      1.29733250	      1.28853439	     -0.98795257	     -7.68699445	     -9.43822002	     21.43149368	     82.83789635	     19.80327506	    -11.36659494	      5.10748644	     30.87209395	     80.86358077
     44.95000000	      6.53352946	     -2.64094973	    -10.71848599	      0.49900439	      0.96211312	      0.76579568	     27.58542823	      6.12646829	      6.53496333	     36.87345869	      0.64356326	      9.15621313	    -11.44901120	     -7.49999987	    -10.72655494	      1.34001769	     -4.24703777	     12.04404784	      0.21020829	     18.04133281	     -7.59740563	     -7.49999987	    -18.23890990	      1.80689235	      0.26076128	     -1.65467379	     -7.67177848	     -9.09587109	     22.09561809	     80.86909427	     20.13322165	    -11.91695797	      4.31753270	     32.83871813	     79.23103570
     44.96666670	      6.02302817	     -2.76240278	    -10.21186853	      0.49943226	      0.95961522	      0.76535242	     28.67290682	      6.23518130	      6.43347983	     33.95384967	      0.59260647	      9.82005088	    -10.19008838	     -7.49999987	    -11.18337511	      1.27602051	     -4.41133206	     12.20443445	      0.21300756	     19.43152501	     -7.12232117	     -7.49999987	    -17.86774082	      2.32330140	     -0.61090807	     -2.42080712	     -7.65816133	     -9.02599250	     22.90651294	     79.43665746	     20.54635649	    -12.22051231	      3.57950963	     34.26467429	     78.26910238
